HIERARCHY
ROOT Hips
{
  OFFSET 53.4527 84.4694 8.47001
  CHANNELS 6 Xposition Yposition Zposition Zrotation Xrotation Yrotation
  JOINT spine
  {
    OFFSET 0 5.95438 0.342407
    CHANNELS 3 Zrotation Xrotation Yrotation
    JOINT spine1
    {
      OFFSET 0 8.85602 0
      CHANNELS 3 Zrotation Xrotation Yrotation
      JOINT spine2
      {
        OFFSET 0 8.48567 0
        CHANNELS 3 Zrotation Xrotation Yrotation
        JOINT Neck
        {
          OFFSET 0 21.7863 1.0387
          CHANNELS 3 Zrotation Xrotation Yrotation
          JOINT Head
          {
            OFFSET 0 6.5822 0
            CHANNELS 3 Zrotation Xrotation Yrotation
            End Site
            {
              OFFSET 0 15.9326 -5.25436
            }
          }
        }
        JOINT RightShoulder
        {
          OFFSET -3.57307 9.16386 -0.497525
          CHANNELS 3 Zrotation Xrotation Yrotation
          JOINT RightArm
          {
            OFFSET 0 12.0192 0
            CHANNELS 3 Zrotation Xrotation Yrotation
            JOINT RightArmRoll
            {
              OFFSET 0 6.06754 0
              CHANNELS 3 Zrotation Xrotation Yrotation
              JOINT RightForeArm
              {
                OFFSET 0 17.6726 0
                CHANNELS 3 Zrotation Xrotation Yrotation
                JOINT RightForeArmRoll
                {
                  OFFSET 0 6.80872 0
                  CHANNELS 3 Zrotation Xrotation Yrotation
                  JOINT RightHand
                  {
                    OFFSET 0 13.6636 0
                    CHANNELS 3 Zrotation Xrotation Yrotation
                    End Site
                    {
                      OFFSET 0 0 0
                    }
                  }
                }
              }
            }
          }
        }
        JOINT LeftShoulder
        {
          OFFSET 3.57307 9.16386 -0.497525
          CHANNELS 3 Zrotation Xrotation Yrotation
          JOINT LeftArm
          {
            OFFSET 0 12.0192 0
            CHANNELS 3 Zrotation Xrotation Yrotation
            JOINT LeftArmRoll
            {
              OFFSET 0 6.06755 0
              CHANNELS 3 Zrotation Xrotation Yrotation
              JOINT LeftForeArm
              {
                OFFSET 0 17.6726 0
                CHANNELS 3 Zrotation Xrotation Yrotation
                JOINT LeftForeArmRoll
                {
                  OFFSET 0 6.80872 0
                  CHANNELS 3 Zrotation Xrotation Yrotation
                  JOINT LeftHand
                  {
                    OFFSET 0 13.6636 0
                    CHANNELS 3 Zrotation Xrotation Yrotation
                    End Site
                    {
                      OFFSET 0 0 0
                    }
                  }
                }
              }
            }
          }
        }
      }
    }
  }
  JOINT RightUpLeg
  {
    OFFSET -5.27774 -0.967797 -0.811858
    CHANNELS 3 Zrotation Xrotation Yrotation
    JOINT RightUpLegRoll
    {
      OFFSET 0 16.0214 0
      CHANNELS 3 Zrotation Xrotation Yrotation
      JOINT RightLeg
      {
        OFFSET 0 -19.8401 0
        CHANNELS 3 Zrotation Xrotation Yrotation
        JOINT RightLegRoll
        {
          OFFSET 0 19.905 0
          CHANNELS 3 Zrotation Xrotation Yrotation
          JOINT RightFoot
          {
            OFFSET 0 16.5675 0
            CHANNELS 3 Zrotation Xrotation Yrotation
            JOINT RightToeBase
            {
              OFFSET 0 13.8496 0
              CHANNELS 3 Zrotation Xrotation Yrotation
              End Site
              {
                OFFSET 0.00587034 6.70728 -0.773117
              }
            }
          }
        }
      }
    }
  }
  JOINT LeftUpLeg
  {
    OFFSET 5.27774 -0.967797 -0.811858
    CHANNELS 3 Zrotation Xrotation Yrotation
    JOINT LeftUpLegRoll
    {
      OFFSET 0 16.0215 0
      CHANNELS 3 Zrotation Xrotation Yrotation
      JOINT LeftLeg
      {
        OFFSET 0 19.84 0
        CHANNELS 3 Zrotation Xrotation Yrotation
        JOINT LeftLegRoll
        {
          OFFSET 0 20.089 0
          CHANNELS 3 Zrotation Xrotation Yrotation
          JOINT LeftFoot
          {
            OFFSET 0 16.3835 0
            CHANNELS 3 Zrotation Xrotation Yrotation
            JOINT LeftToeBase
            {
              OFFSET 0 13.8496 0
              CHANNELS 3 Zrotation Xrotation Yrotation
              End Site
              {
                OFFSET -0.0263083 6.70728 -0.773117
              }
            }
          }
        }
      }
    }
  }
}
MOTION
Frames: 9
Frame Time: 0.00208333
53.3341 84.4189 6.14964 -0.700272 -9.53799 -2.73017 0.296512 -0.4084 0.0699557 0.580655 3.15896 0.116615 0.580049 4.80397 0.105197 -4.68448 16.4452 -0.185437 6.98655 2.33117 -1.47447 75.7971 1.32911 -1.30388 102.435 16.569 -3.46336 3.27664e-006 -9.69565e-007 1.55962e-006 -3.63788 -0.0140966 -1.99175 -1.97493e-006 1.85689e-006 -3.01161 8.03009 -4.95139 0.697628 -67.4648 -1.13271 1.54959 -114.127 15.7044 12.927 -1.10421e-005 4.14195e-006 6.14121e-006 3.63811 -0.0266736 1.99247 1.03912e-005 -9.99509e-007 3.01162 -8.03008 -4.95136 -0.697615 179.052 -3.23095 3.63439 -180 7.01518e-015 178.805 177.426 9.29021 179.871 -2.44236e-006 -4.01026e-006 0.134994 -18.9827 68.3826 19.8489 8.13649 25.2327 -3.48774 -178.558 -3.98983 -0.834496 4.54188e-006 -4.6773e-006 -1.20322 -2.29601 -10.962 0.087602 4.11527e-006 -2.58537e-006 -0.187668 19.9585 69.5715 -20.9309 -8.13649 25.2327 3.48774 
53.3356 84.421 6.15095 -0.699084 -9.5354 -2.72899 0.295755 -0.408361 0.0699501 0.580027 3.16 0.116639 0.57942 4.80502 0.10524 -4.68224 16.4095 -0.18529 6.98621 2.36785 -1.47444 75.7929 1.31983 -1.30741 102.433 16.5739 -3.46325 3.27664e-006 -9.69565e-007 1.55962e-006 -3.63788 -0.0140966 -1.99175 -1.97493e-006 1.85689e-006 -3.01161 8.03009 -4.95139 0.697628 -67.4744 -1.13124 1.54981 -114.113 15.6993 12.9121 -1.10421e-005 4.14195e-006 6.14121e-006 3.63811 -0.0266736 1.99247 1.03912e-005 -9.99509e-007 3.01162 -8.03008 -4.95136 -0.697615 179.05 -3.22497 3.63465 -180 7.01518e-015 178.805 177.426 9.29771 179.871 -2.44236e-006 -4.01026e-006 0.134994 -18.9856 68.386 19.8521 8.13649 25.2327 -3.48774 -178.559 -3.98499 -0.834036 4.54188e-006 -4.6773e-006 -1.20323 -2.29677 -10.965 0.0873176 4.11527e-006 -2.58537e-006 -0.187668 19.959 69.5721 -20.9315 -8.13649 25.2327 3.48774 
53.3347 84.4196 6.14824 -0.697783 -9.53284 -2.72771 0.294964 -0.408304 0.0699441 0.579338 3.1611 0.116666 0.57873 4.80612 0.105286 -4.67989 16.3725 -0.185169 6.98594 2.40584 -1.47442 75.7885 1.31019 -1.31106 102.432 16.579 -3.46383 3.27664e-006 -9.69565e-007 1.55962e-006 -3.63788 -0.0140966 -1.99175 -1.97493e-006 1.85689e-006 -3.01161 8.03009 -4.95139 0.697628 -67.4844 -1.12955 1.54996 -114.098 15.6942 12.8969 -1.10421e-005 4.14195e-006 6.14121e-006 3.63811 -0.0266736 1.99247 1.03912e-005 -9.99509e-007 3.01162 -8.03008 -4.95136 -0.697615 179.047 -3.21897 3.63505 -180 7.01518e-015 178.805 177.427 9.30537 179.872 -2.44236e-006 -4.01026e-006 0.134994 -18.9887 68.3895 19.8554 8.13649 25.2327 -3.48774 -178.561 -3.98016 -0.833464 4.54188e-006 -4.6773e-006 -1.20325 -2.29749 -10.968 0.0870331 4.11527e-006 -2.58537e-006 -0.187668 19.9596 69.5727 -20.9321 -8.13649 25.2327 3.48774 
53.3354 84.4206 6.14587 -0.696401 -9.53031 -2.72637 0.294147 -0.408233 0.069938 0.578608 3.16225 0.116695 0.577998 4.80727 0.105336 -4.67747 16.3346 -0.185065 6.98571 2.44475 -1.47441 75.7839 1.30032 -1.31479 102.432 16.5843 -3.46489 3.27664e-006 -9.69565e-007 1.55962e-006 -3.63788 -0.0140966 -1.99175 -1.97493e-006 1.85689e-006 -3.01161 8.03009 -4.95139 0.697628 -67.4947 -1.12772 1.55007 -114.084 15.6892 12.8814 -1.10421e-005 4.14195e-006 6.14121e-006 3.63811 -0.0266736 1.99247 1.03912e-005 -9.99509e-007 3.01162 -8.03008 -4.95136 -0.697615 179.044 -3.21293 3.63553 -180 7.01518e-015 178.805 177.428 9.31315 179.872 -2.44236e-006 -4.01026e-006 0.134994 -18.9918 68.3931 19.8587 8.13649 25.2327 -3.48774 -178.562 -3.97535 -0.832814 4.54188e-006 -4.6773e-006 -1.20327 -2.29819 -10.971 0.0867485 4.11527e-006 -2.58537e-006 -0.187668 19.9601 69.5732 -20.9326 -8.13649 25.2327 3.48774 
53.3443 84.4203 6.14438 -0.694974 -9.52778 -2.72499 0.293317 -0.408155 0.0699316 0.577853 3.16341 0.116725 0.577242 4.80843 0.105388 -4.675 16.2962 -0.184972 6.98551 2.48418 -1.47441 75.7792 1.29032 -1.31857 102.431 16.5897 -3.46623 3.27664e-006 -9.69565e-007 1.55962e-006 -3.63788 -0.0140966 -1.99175 -1.97493e-006 1.85689e-006 -3.01161 8.03009 -4.95139 0.697628 -67.5052 -1.12581 1.55015 -114.069 15.6843 12.8659 -1.10421e-005 4.14195e-006 6.14121e-006 3.63811 -0.0266736 1.99247 1.03912e-005 -9.99509e-007 3.01162 -8.03008 -4.95136 -0.697615 179.041 -3.20689 3.63607 -180 7.01518e-015 178.805 177.429 9.32099 179.872 -2.44236e-006 -4.01026e-006 0.134994 -18.9949 68.3967 19.8621 8.13649 25.2327 -3.48774 -178.564 -3.97055 -0.832119 4.54188e-006 -4.6773e-006 -1.2033 -2.29886 -10.974 0.0864639 4.11527e-006 -2.58537e-006 -0.187668 19.9606 69.5737 -20.9332 -8.13649 25.2327 3.48774 
53.3407 84.4199 6.1444 -0.693536 -9.52526 -2.7236 0.292483 -0.408075 0.0699253 0.577092 3.16458 0.116755 0.57648 4.8096 0.10544 -4.67253 16.2576 -0.184882 6.98532 2.52374 -1.47441 75.7745 1.28027 -1.32237 102.431 16.5951 -3.46764 3.27664e-006 -9.69565e-007 1.55962e-006 -3.63788 -0.0140966 -1.99175 -1.97493e-006 1.85689e-006 -3.01161 8.03009 -4.95139 0.697628 -67.5158 -1.12387 1.55022 -114.054 15.6793 12.8502 -1.10421e-005 4.14195e-006 6.14121e-006 3.63811 -0.0266736 1.99247 1.03912e-005 -9.99509e-007 3.01162 -8.03008 -4.95136 -0.697615 179.037 -3.20084 3.63662 -180 7.01518e-015 178.805 177.43 9.32887 179.872 -2.44236e-006 -4.01026e-006 0.134994 -18.998 68.4003 19.8655 8.13649 25.2327 -3.48774 -178.566 -3.96575 -0.831413 4.54188e-006 -4.6773e-006 -1.20333 -2.29953 -10.9769 0.0861793 4.11527e-006 -2.58537e-006 -0.187668 19.9611 69.5743 -20.9337 -8.13649 25.2327 3.48774 
53.3457 84.4173 6.14497 -0.69212 -9.52273 -2.72224 0.291655 -0.407999 0.069919 0.576343 3.16574 0.116785 0.575729 4.81076 0.105492 -4.67007 16.2193 -0.184786 6.98511 2.56305 -1.47441 75.7698 1.2703 -1.32614 102.431 16.6004 -3.46891 3.27664e-006 -9.69565e-007 1.55962e-006 -3.63788 -0.0140966 -1.99175 -1.97493e-006 1.85689e-006 -3.01161 8.03009 -4.95139 0.697628 -67.5262 -1.12197 1.55031 -114.039 15.6744 12.8347 -1.10421e-005 4.14195e-006 6.14121e-006 3.63811 -0.0266736 1.99247 1.03912e-005 -9.99509e-007 3.01162 -8.03008 -4.95136 -0.697615 179.034 -3.1948 3.63715 -180 7.01518e-015 178.805 177.431 9.33669 179.872 -2.44236e-006 -4.01026e-006 0.134994 -19.0012 68.4039 19.8688 8.13649 25.2327 -3.48774 -178.567 -3.96095 -0.83073 4.54188e-006 -4.6773e-006 -1.20335 -2.30021 -10.9799 0.0858947 4.11527e-006 -2.58537e-006 -0.187668 19.9617 69.5748 -20.9343 -8.13649 25.2327 3.48774 
53.3481 84.4196 6.14202 -0.690762 -9.52019 -2.72091 0.290846 -0.407932 0.0699129 0.575625 3.16687 0.116813 0.575009 4.81189 0.105541 -4.66767 16.1816 -0.184678 6.98487 2.60169 -1.4744 75.7653 1.2605 -1.32985 102.43 16.6057 -3.46983 3.27664e-006 -9.69565e-007 1.55962e-006 -3.63788 -0.0140966 -1.99175 -1.97493e-006 1.85689e-006 -3.01161 8.03009 -4.95139 0.697628 -67.5365 -1.12018 1.55043 -114.025 15.6694 12.8193 -1.10421e-005 4.14195e-006 6.14121e-006 3.63811 -0.0266736 1.99247 1.03912e-005 -9.99509e-007 3.01162 -8.03008 -4.95136 -0.697615 179.031 -3.18878 3.63761 -180 7.01518e-015 178.805 177.432 9.34446 179.873 -2.44236e-006 -4.01026e-006 0.134994 -19.0043 68.4074 19.8721 8.13649 25.2327 -3.48774 -178.569 -3.95614 -0.830102 4.54188e-006 -4.6773e-006 -1.20338 -2.30091 -10.9828 0.0856101 4.11527e-006 -2.58537e-006 -0.187668 19.9622 69.5753 -20.9349 -8.13649 25.2327 3.48774 
53.3426 84.4205 6.14299 -0.689495 -9.51762 -2.71966 0.290065 -0.40788 0.0699071 0.574954 3.16795 0.116839 0.574338 4.81298 0.105586 -4.66536 16.145 -0.18455 6.98457 2.63929 -1.47438 75.7609 1.25097 -1.33346 102.429 16.6107 -3.4702 3.27664e-006 -9.69565e-007 1.55962e-006 -3.63788 -0.0140966 -1.99175 -1.97493e-006 1.85689e-006 -3.01161 8.03009 -4.95139 0.697628 -67.5464 -1.11856 1.5506 -114.011 15.6643 12.8042 -1.10421e-005 4.14195e-006 6.14121e-006 3.63811 -0.0266736 1.99247 1.03912e-005 -9.99509e-007 3.01162 -8.03008 -4.95136 -0.697615 179.029 -3.18278 3.63797 -180 7.01518e-015 178.805 177.433 9.35206 179.873 -2.44236e-006 -4.01026e-006 0.134994 -19.0073 68.4109 19.8754 8.13649 25.2327 -3.48774 -178.571 -3.9513 -0.829564 4.54188e-006 -4.6773e-006 -1.20339 -2.30164 -10.9858 0.0853256 4.11527e-006 -2.58537e-006 -0.187668 19.9627 69.5759 -20.9354 -8.13649 25.2327 3.48774 
